#VRML V2.0 utf8

Shape {
  appearance Appearance {
    material Material {
      diffuseColor 0.2078 0.2078 0.2078
      specularColor 0.0157 0.0157 0.0157
      ambientIntensity 0.2
      transparency 0.0000
      shininess 0.5
    }
  }
  geometry IndexedFaceSet {
    ccw TRUE
    solid FALSE
    coord DEF co Coordinate {
      point [
        -2.430533 -2.504089 0.000000,
        -2.460392 -2.485328 0.000000,
        -2.519685 -2.362205 0.000000,
        -1.732283 -0.102235 0.000000,
        -0.063356 -0.102235 0.000000,
        -1.732283 -1.181102 0.000000,
        -0.063356 -2.519685 0.000000,
        -2.519685 -1.181102 0.000000,
        -2.362205 -2.519685 0.000000,
        -2.397247 -2.515737 0.000000,
        -2.485328 -2.460392 0.000000,
        -2.504089 -2.430533 0.000000,
        -2.515737 -2.397247 0.000000,
        1.732283 -1.181102 0.000000,
        2.519685 -1.181102 0.000000,
        2.519685 -2.362205 0.000000,
        2.362205 -2.519685 0.000000,
        2.397247 -2.515737 0.000000,
        0.140761 -0.102235 0.000000,
        0.148667 -0.103343 0.000000,
        0.154050 -0.103435 0.000000,
        1.732283 -0.102235 0.000000,
        0.165626 -0.102235 0.000000,
        2.504089 -2.430533 0.000000,
        2.485328 -2.460392 0.000000,
        2.515737 -2.397247 0.000000,
        2.460392 -2.485328 0.000000,
        2.430533 -2.504089 0.000000,
        0.363954 0.095816 0.000000,
        0.337547 0.095816 0.000000,
        -0.063356 2.519685 0.000000,
        0.061476 0.095816 0.000000,
        0.099886 -0.069226 0.000000,
        0.061476 -0.101035 0.000000,
        0.099886 -0.090832 0.000000,
        0.120869 -0.099448 0.000000,
        2.519685 2.362205 0.000000,
        2.519685 1.181102 0.000000,
        1.732283 1.181102 0.000000,
        -0.044151 -0.101035 0.000000,
        -0.044151 -0.079429 0.000000,
        -0.039350 0.074210 0.000000,
        -0.039350 0.095816 0.000000,
        2.397247 2.515737 0.000000,
        2.430533 2.504089 0.000000,
        2.460392 2.485328 0.000000,
        0.363954 -0.101035 0.000000,
        2.362205 2.519685 0.000000,
        2.515737 2.397247 0.000000,
        2.504089 2.430533 0.000000,
        0.263128 -0.101035 0.000000,
        0.178309 -0.100920 0.000000,
        0.197388 -0.094352 0.000000,
        0.165369 0.074434 0.000000,
        0.180103 0.069117 0.000000,
        0.103414 -0.071181 0.000000,
        0.193728 0.060002 0.000000,
        0.205615 0.046878 0.000000,
        0.219917 -0.004710 0.000000,
        0.217924 -0.026020 0.000000,
        0.212576 -0.042952 0.000000,
        0.168772 -0.079770 0.000000,
        0.150411 -0.081830 0.000000,
        0.183115 -0.074489 0.000000,
        0.195197 -0.066347 0.000000,
        0.204434 -0.056602 0.000000,
        0.124281 -0.078929 0.000000,
        2.485328 2.460392 0.000000,
        0.206625 0.079465 0.000000,
        0.224396 0.062372 0.000000,
        0.235935 0.043968 0.000000,
        -0.034548 -0.012212 0.000000,
        0.035069 -0.012212 0.000000,
        0.035069 -0.079429 0.000000,
        0.213731 0.031680 0.000000,
        0.218978 0.010606 0.000000,
        0.213223 -0.084241 0.000000,
        0.228009 -0.068674 0.000000,
        0.263128 -0.079429 0.000000,
        0.238496 -0.049957 0.000000,
        0.337547 -0.079429 0.000000,
        -0.034548 0.009394 0.000000,
        0.035069 0.009394 0.000000,
        0.035069 0.074210 0.000000,
        0.244420 -0.029120 0.000000,
        0.246324 -0.006323 0.000000,
        0.243492 0.021663 0.000000,
        0.187927 0.090227 0.000000,
        0.165982 0.096602 0.000000,
        0.146210 0.098217 0.000000,
        0.122645 0.096591 0.000000,
        0.099886 0.090415 0.000000,
        0.099886 0.064008 0.000000,
        0.122059 0.073502 0.000000,
        0.145985 0.076611 0.000000,
        -0.255405 -0.101035 0.000000,
        -0.231172 -0.047082 0.000000,
        -0.219883 -0.064689 0.000000,
        -1.732283 1.181102 0.000000,
        -2.362205 2.519685 0.000000,
        -2.519685 1.181102 0.000000,
        -0.203680 -0.080203 0.000000,
        -0.183126 -0.092148 0.000000,
        -0.160444 -0.098908 0.000000,
        -0.404243 -0.101035 0.000000,
        -0.433050 -0.101035 0.000000,
        -0.356231 0.095816 0.000000,
        -0.329824 0.095816 0.000000,
        -0.136087 -0.101035 0.000000,
        -0.082561 -0.101035 0.000000,
        -0.082561 0.095816 0.000000,
        -0.138113 0.095816 0.000000,
        -0.211215 0.070149 0.000000,
        -0.225135 0.054713 0.000000,
        -0.234283 0.037784 0.000000,
        -0.284212 -0.101035 0.000000,
        -0.303005 -0.045820 0.000000,
        -0.384326 -0.045820 0.000000,
        -0.166552 0.092776 0.000000,
        -0.189584 0.084689 0.000000,
        -0.211009 0.070330 0.000000,
        -2.504089 2.430533 0.000000,
        -2.485328 2.460392 0.000000,
        -2.515737 2.397247 0.000000,
        -2.460392 2.485328 0.000000,
        -2.430533 2.504089 0.000000,
        -0.239571 0.018389 0.000000,
        -0.241001 -0.000133 0.000000,
        -0.238239 -0.026478 0.000000,
        -2.519685 2.362205 0.000000,
        -2.397247 2.515737 0.000000,
        -2.519685 -1.181102 0.118110,
        -2.519685 -2.362205 2.362205,
        -2.519685 1.181102 0.118110,
        -2.519685 0.748031 1.240157,
        -2.519685 2.362205 2.362205,
        -2.519685 0.748031 1.377953,
        -2.519685 -0.748031 1.377953,
        -2.519685 -0.748031 1.240157,
        2.519685 1.181102 0.118110,
        2.519685 0.748031 1.240157,
        2.519685 -0.748031 1.240157,
        2.519685 -1.181102 0.118110,
        2.519685 0.748031 1.377953,
        2.519685 2.362205 2.362205,
        2.519685 -0.748031 1.377953,
        2.519685 -2.362205 2.362205,
        2.515737 2.397247 2.362205,
        2.504089 2.430533 2.362205,
        2.485328 2.460392 2.362205,
        2.460392 2.485328 2.362205,
        2.430533 2.504089 2.362205,
        2.397247 2.515737 2.362205,
        2.362205 2.519685 2.362205,
        -2.362205 2.519685 2.362205,
        -2.397247 2.515737 2.362205,
        -2.430533 2.504089 2.362205,
        -2.460392 2.485328 2.362205,
        -2.485328 2.460392 2.362205,
        -2.504089 2.430533 2.362205,
        -2.515737 2.397247 2.362205,
        -2.515737 -2.397247 2.362205,
        -2.504089 -2.430533 2.362205,
        -2.485328 -2.460392 2.362205,
        -2.460392 -2.485328 2.362205,
        -2.430533 -2.504089 2.362205,
        -2.397247 -2.515737 2.362205,
        -2.362205 -2.519685 2.362205,
        2.362205 -2.519685 2.362205,
        2.397247 -2.515737 2.362205,
        2.430533 -2.504089 2.362205,
        2.460392 -2.485328 2.362205,
        2.485328 -2.460392 2.362205,
        2.504089 -2.430533 2.362205,
        2.515737 -2.397247 2.362205,
        1.732283 -1.181102 0.118110,
        1.732283 1.181102 0.118110,
        -1.732283 -1.181102 0.118110,
        -1.732283 1.181102 0.118110,
      ]
    }
    coordIndex [
      0, 1, 2, -1,
      3, 4, 5, -1,
      5, 4, 6, -1,
      5, 6, 7, -1,
      7, 6, 8, -1,
      7, 8, 2, -1,
      2, 8, 9, -1,
      2, 9, 0, -1,
      10, 11, 1, -1,
      1, 11, 12, -1,
      1, 12, 2, -1,
      13, 14, 6, -1,
      6, 14, 15, -1,
      6, 15, 16, -1,
      16, 15, 17, -1,
      4, 18, 6, -1,
      6, 18, 19, -1,
      6, 19, 13, -1,
      13, 19, 20, -1,
      13, 20, 21, -1,
      21, 20, 22, -1,
      23, 24, 25, -1,
      25, 24, 26, -1,
      25, 26, 15, -1,
      15, 26, 27, -1,
      15, 27, 17, -1,
      28, 29, 30, -1,
      31, 32, 33, -1,
      33, 32, 34, -1,
      33, 34, 35, -1,
      36, 37, 38, -1,
      35, 18, 33, -1,
      33, 18, 4, -1,
      33, 4, 39, -1,
      39, 4, 40, -1,
      41, 4, 42, -1,
      42, 4, 30, -1,
      42, 30, 31, -1,
      43, 44, 45, -1,
      46, 28, 38, -1,
      38, 28, 30, -1,
      38, 30, 36, -1,
      36, 30, 47, -1,
      36, 47, 48, -1,
      48, 47, 49, -1,
      38, 21, 46, -1,
      46, 21, 22, -1,
      46, 22, 50, -1,
      50, 22, 51, -1,
      50, 51, 52, -1,
      53, 54, 55, -1,
      55, 54, 56, -1,
      55, 56, 57, -1,
      58, 59, 55, -1,
      55, 59, 60, -1,
      61, 62, 63, -1,
      63, 62, 64, -1,
      60, 65, 55, -1,
      55, 65, 64, -1,
      55, 64, 66, -1,
      66, 64, 62, -1,
      43, 45, 47, -1,
      47, 45, 67, -1,
      47, 67, 49, -1,
      68, 30, 69, -1,
      69, 30, 29, -1,
      69, 29, 70, -1,
      71, 72, 73, -1,
      57, 74, 55, -1,
      55, 74, 75, -1,
      55, 75, 58, -1,
      52, 76, 50, -1,
      50, 76, 77, -1,
      50, 77, 78, -1,
      78, 77, 79, -1,
      78, 79, 80, -1,
      73, 40, 71, -1,
      71, 40, 4, -1,
      71, 4, 81, -1,
      81, 4, 41, -1,
      81, 41, 82, -1,
      82, 41, 83, -1,
      79, 84, 80, -1,
      80, 84, 85, -1,
      80, 85, 29, -1,
      29, 85, 86, -1,
      29, 86, 70, -1,
      68, 87, 30, -1,
      30, 87, 88, -1,
      30, 88, 89, -1,
      89, 90, 30, -1,
      30, 90, 91, -1,
      30, 91, 31, -1,
      31, 91, 92, -1,
      31, 92, 32, -1,
      32, 92, 93, -1,
      32, 93, 55, -1,
      55, 93, 94, -1,
      55, 94, 53, -1,
      95, 96, 97, -1,
      30, 98, 99, -1,
      99, 98, 100, -1,
      97, 101, 95, -1,
      95, 101, 102, -1,
      95, 102, 103, -1,
      104, 4, 105, -1,
      105, 4, 3, -1,
      105, 3, 106, -1,
      106, 3, 98, -1,
      106, 98, 107, -1,
      107, 98, 30, -1,
      108, 109, 4, -1,
      4, 109, 110, -1,
      4, 110, 30, -1,
      30, 110, 111, -1,
      112, 113, 107, -1,
      107, 113, 114, -1,
      103, 108, 95, -1,
      95, 108, 4, -1,
      95, 4, 115, -1,
      115, 4, 104, -1,
      115, 104, 116, -1,
      116, 104, 117, -1,
      111, 118, 30, -1,
      30, 118, 119, -1,
      30, 119, 107, -1,
      107, 119, 120, -1,
      107, 120, 112, -1,
      121, 122, 123, -1,
      123, 122, 124, -1,
      123, 124, 125, -1,
      114, 126, 107, -1,
      107, 126, 127, -1,
      107, 127, 95, -1,
      95, 127, 128, -1,
      95, 128, 96, -1,
      100, 129, 99, -1,
      99, 129, 123, -1,
      99, 123, 130, -1,
      130, 123, 125, -1,
      7, 2, 131, -1,
      131, 2, 132, -1,
      100, 133, 129, -1,
      129, 133, 134, -1,
      129, 134, 135, -1,
      135, 134, 136, -1,
      135, 136, 132, -1,
      132, 136, 137, -1,
      132, 137, 131, -1,
      131, 137, 138, -1,
      131, 138, 133, -1,
      133, 138, 134, -1,
      139, 37, 36, -1,
      140, 141, 142, -1,
      142, 139, 140, -1,
      140, 139, 36, -1,
      140, 36, 143, -1,
      143, 36, 144, -1,
      143, 144, 145, -1,
      145, 144, 146, -1,
      145, 146, 141, -1,
      141, 146, 15, -1,
      141, 15, 142, -1,
      142, 15, 14, -1,
      144, 36, 48, -1,
      144, 48, 147, -1,
      147, 48, 49, -1,
      147, 49, 148, -1,
      148, 49, 67, -1,
      148, 67, 149, -1,
      149, 67, 45, -1,
      149, 45, 150, -1,
      150, 45, 44, -1,
      150, 44, 151, -1,
      151, 44, 43, -1,
      151, 43, 152, -1,
      152, 43, 47, -1,
      152, 47, 153, -1,
      153, 47, 154, -1,
      154, 47, 30, -1,
      154, 30, 99, -1,
      154, 99, 130, -1,
      154, 130, 155, -1,
      155, 130, 125, -1,
      155, 125, 156, -1,
      156, 125, 124, -1,
      156, 124, 157, -1,
      157, 124, 122, -1,
      157, 122, 158, -1,
      158, 122, 121, -1,
      158, 121, 159, -1,
      159, 121, 123, -1,
      159, 123, 160, -1,
      160, 123, 129, -1,
      160, 129, 135, -1,
      132, 2, 12, -1,
      132, 12, 161, -1,
      161, 12, 11, -1,
      161, 11, 162, -1,
      162, 11, 10, -1,
      162, 10, 163, -1,
      163, 10, 1, -1,
      163, 1, 164, -1,
      164, 1, 0, -1,
      164, 0, 165, -1,
      165, 0, 9, -1,
      165, 9, 166, -1,
      166, 9, 8, -1,
      166, 8, 167, -1,
      16, 168, 6, -1,
      6, 168, 167, -1,
      6, 167, 8, -1,
      168, 16, 17, -1,
      168, 17, 169, -1,
      169, 17, 27, -1,
      169, 27, 170, -1,
      170, 27, 26, -1,
      170, 26, 171, -1,
      171, 26, 24, -1,
      171, 24, 172, -1,
      172, 24, 23, -1,
      172, 23, 173, -1,
      173, 23, 25, -1,
      173, 25, 174, -1,
      174, 25, 15, -1,
      174, 15, 146, -1,
      167, 168, 146, -1,
      146, 168, 169, -1,
      167, 146, 154, -1,
      154, 146, 144, -1,
      154, 144, 153, -1,
      132, 164, 165, -1,
      156, 157, 160, -1,
      160, 157, 158, -1,
      160, 158, 159, -1,
      132, 161, 164, -1,
      164, 161, 162, -1,
      164, 162, 163, -1,
      169, 170, 146, -1,
      146, 170, 171, -1,
      146, 171, 174, -1,
      174, 171, 172, -1,
      174, 172, 173, -1,
      144, 147, 153, -1,
      153, 147, 148, -1,
      153, 148, 149, -1,
      149, 150, 153, -1,
      153, 150, 151, -1,
      153, 151, 152, -1,
      165, 166, 132, -1,
      132, 166, 167, -1,
      132, 167, 135, -1,
      135, 167, 154, -1,
      135, 154, 160, -1,
      160, 154, 155, -1,
      160, 155, 156, -1,
      142, 175, 139, -1,
      139, 175, 176, -1,
      38, 176, 21, -1,
      21, 176, 175, -1,
      21, 175, 13, -1,
      175, 142, 13, -1,
      13, 142, 14, -1,
      139, 176, 37, -1,
      37, 176, 38, -1,
      5, 177, 3, -1,
      3, 177, 178, -1,
      3, 178, 98, -1,
      177, 131, 178, -1,
      178, 131, 133, -1,
      177, 5, 131, -1,
      131, 5, 7, -1,
      98, 178, 100, -1,
      100, 178, 133, -1,
    ]
  }
}

Shape {
  appearance Appearance {
    material Material {
      diffuseColor 0.8314 0.8314 0.8196
      specularColor 0.6667 0.6667 0.6549
      ambientIntensity 0.2
      transparency 0.0000
      shininess 0.5
    }
  }
  geometry IndexedFaceSet {
    ccw TRUE
    solid FALSE
    coord DEF co Coordinate {
      point [
        0.140761 -0.102235 0.000000,
        0.148667 -0.103343 0.000000,
        0.154050 -0.103435 0.000000,
        0.165626 -0.102235 0.000000,
        0.363954 0.095816 0.000000,
        0.337547 0.095816 0.000000,
        0.061476 0.095816 0.000000,
        0.099886 -0.069226 0.000000,
        0.061476 -0.101035 0.000000,
        0.099886 -0.090832 0.000000,
        0.120869 -0.099448 0.000000,
        -0.044151 -0.101035 0.000000,
        -0.044151 -0.079429 0.000000,
        -0.039350 0.074210 0.000000,
        -0.039350 0.095816 0.000000,
        0.363954 -0.101035 0.000000,
        0.263128 -0.101035 0.000000,
        0.178309 -0.100920 0.000000,
        0.197388 -0.094352 0.000000,
        0.165369 0.074434 0.000000,
        0.180103 0.069117 0.000000,
        0.103414 -0.071181 0.000000,
        0.193728 0.060002 0.000000,
        0.205615 0.046878 0.000000,
        0.219917 -0.004710 0.000000,
        0.217924 -0.026020 0.000000,
        0.212576 -0.042952 0.000000,
        0.168772 -0.079770 0.000000,
        0.150411 -0.081830 0.000000,
        0.183115 -0.074489 0.000000,
        0.195197 -0.066347 0.000000,
        0.204434 -0.056602 0.000000,
        0.124281 -0.078929 0.000000,
        0.206625 0.079465 0.000000,
        0.224396 0.062372 0.000000,
        0.235935 0.043968 0.000000,
        -0.034548 -0.012212 0.000000,
        0.035069 -0.012212 0.000000,
        0.035069 -0.079429 0.000000,
        0.213731 0.031680 0.000000,
        0.218978 0.010606 0.000000,
        0.213223 -0.084241 0.000000,
        0.228009 -0.068674 0.000000,
        0.263128 -0.079429 0.000000,
        0.238496 -0.049957 0.000000,
        0.337547 -0.079429 0.000000,
        -0.034548 0.009394 0.000000,
        0.035069 0.009394 0.000000,
        0.035069 0.074210 0.000000,
        0.244420 -0.029120 0.000000,
        0.246324 -0.006323 0.000000,
        0.243492 0.021663 0.000000,
        0.187927 0.090227 0.000000,
        0.165982 0.096602 0.000000,
        0.146210 0.098217 0.000000,
        0.122645 0.096591 0.000000,
        0.099886 0.090415 0.000000,
        0.099886 0.064008 0.000000,
        0.122059 0.073502 0.000000,
        0.145985 0.076611 0.000000,
        -0.255405 -0.101035 0.000000,
        -0.231172 -0.047082 0.000000,
        -0.219883 -0.064689 0.000000,
        -0.203680 -0.080203 0.000000,
        -0.183126 -0.092148 0.000000,
        -0.160444 -0.098908 0.000000,
        -0.404243 -0.101035 0.000000,
        -0.433050 -0.101035 0.000000,
        -0.356231 0.095816 0.000000,
        -0.329824 0.095816 0.000000,
        -0.136087 -0.101035 0.000000,
        -0.082561 -0.101035 0.000000,
        -0.082561 0.095816 0.000000,
        -0.138113 0.095816 0.000000,
        -0.211215 0.070149 0.000000,
        -0.225135 0.054713 0.000000,
        -0.234283 0.037784 0.000000,
        -0.284212 -0.101035 0.000000,
        -0.303005 -0.045820 0.000000,
        -0.384326 -0.045820 0.000000,
        -0.166552 0.092776 0.000000,
        -0.189584 0.084689 0.000000,
        -0.211009 0.070330 0.000000,
        -0.239571 0.018389 0.000000,
        -0.241001 -0.000133 0.000000,
        -0.238239 -0.026478 0.000000,
        -2.519685 0.748031 1.240157,
        -2.519685 0.748031 1.377953,
        -2.519685 -0.748031 1.377953,
        -2.519685 -0.748031 1.240157,
        2.519685 0.748031 1.240157,
        2.519685 -0.748031 1.240157,
        2.519685 0.748031 1.377953,
        2.519685 -0.748031 1.377953,
        -2.716535 0.748031 1.181102,
        -2.716535 -0.748031 1.181102,
        -2.711600 -0.748031 1.224906,
        -2.711600 0.748031 1.224906,
        -2.697041 -0.748031 1.266513,
        -2.697041 0.748031 1.266513,
        -2.673589 -0.748031 1.303837,
        -2.673589 0.748031 1.303837,
        -2.642419 -0.748031 1.335006,
        -2.642419 0.748031 1.335006,
        -2.605095 -0.748031 1.358459,
        -2.605095 0.748031 1.358459,
        -2.563489 -0.748031 1.373017,
        -2.563489 0.748031 1.373017,
        -2.539370 0.748031 1.240157,
        -2.539370 -0.748031 1.240157,
        -2.548131 0.748031 1.239170,
        -2.548131 -0.748031 1.239170,
        -2.556452 0.748031 1.236259,
        -2.556452 -0.748031 1.236259,
        -2.563917 0.748031 1.231568,
        -2.563917 -0.748031 1.231568,
        -2.570151 0.748031 1.225334,
        -2.570151 -0.748031 1.225334,
        -2.574841 0.748031 1.217869,
        -2.574841 -0.748031 1.217869,
        -2.577753 0.748031 1.209548,
        -2.577753 -0.748031 1.209548,
        -2.578740 0.748031 1.200787,
        -2.578740 -0.748031 1.200787,
        -2.578740 0.748031 0.118110,
        -2.578740 -0.748031 0.118110,
        -2.577753 0.748031 0.109350,
        -2.577753 -0.748031 0.109350,
        -2.574841 0.748031 0.101028,
        -2.574841 -0.748031 0.101028,
        -2.570151 0.748031 0.093563,
        -2.570151 -0.748031 0.093563,
        -2.563917 0.748031 0.087330,
        -2.563917 -0.748031 0.087330,
        -2.556452 0.748031 0.082639,
        -2.556452 -0.748031 0.082639,
        -2.548131 0.748031 0.079727,
        -2.548131 -0.748031 0.079727,
        -2.539370 0.748031 0.078740,
        -2.539370 -0.748031 0.078740,
        -1.929134 0.748031 0.078740,
        -1.929134 -0.748031 0.078740,
        -1.929134 0.748031 -0.059055,
        -1.929134 -0.748031 -0.059055,
        -2.618110 0.748031 -0.059055,
        -2.618110 -0.748031 -0.059055,
        -2.643585 -0.748031 -0.055701,
        -2.643585 0.748031 -0.055701,
        -2.667323 -0.748031 -0.045869,
        -2.667323 0.748031 -0.045869,
        -2.687707 -0.748031 -0.030227,
        -2.687707 0.748031 -0.030227,
        -2.703349 -0.748031 -0.009843,
        -2.703349 0.748031 -0.009843,
        -2.713181 -0.748031 0.013896,
        -2.713181 0.748031 0.013896,
        -2.716535 -0.748031 0.039370,
        -2.716535 0.748031 0.039370,
        2.539370 0.748031 0.078740,
        2.539370 -0.748031 0.078740,
        2.548131 0.748031 0.079727,
        2.548131 -0.748031 0.079727,
        2.556452 0.748031 0.082639,
        2.556452 -0.748031 0.082639,
        2.563917 0.748031 0.087330,
        2.563917 -0.748031 0.087330,
        2.570151 0.748031 0.093563,
        2.570151 -0.748031 0.093563,
        2.574841 0.748031 0.101028,
        2.574841 -0.748031 0.101028,
        2.577753 0.748031 0.109350,
        2.577753 -0.748031 0.109350,
        2.578740 0.748031 0.118110,
        2.578740 -0.748031 0.118110,
        2.578740 0.748031 1.200787,
        2.578740 -0.748031 1.200787,
        2.577753 0.748031 1.209548,
        2.577753 -0.748031 1.209548,
        2.574841 0.748031 1.217869,
        2.574841 -0.748031 1.217869,
        2.570151 0.748031 1.225334,
        2.570151 -0.748031 1.225334,
        2.563917 0.748031 1.231568,
        2.563917 -0.748031 1.231568,
        2.556452 0.748031 1.236259,
        2.556452 -0.748031 1.236259,
        2.548131 0.748031 1.239170,
        2.548131 -0.748031 1.239170,
        2.539370 0.748031 1.240157,
        2.539370 -0.748031 1.240157,
        2.563489 -0.748031 1.373017,
        2.563489 0.748031 1.373017,
        2.605095 -0.748031 1.358459,
        2.605095 0.748031 1.358459,
        2.642419 -0.748031 1.335006,
        2.642419 0.748031 1.335006,
        2.673589 -0.748031 1.303837,
        2.673589 0.748031 1.303837,
        2.697041 -0.748031 1.266513,
        2.697041 0.748031 1.266513,
        2.711600 -0.748031 1.224906,
        2.711600 0.748031 1.224906,
        2.716535 -0.748031 1.181102,
        2.716535 0.748031 1.181102,
        2.716535 0.748031 0.039370,
        2.716535 -0.748031 0.039370,
        2.713181 -0.748031 0.013896,
        2.713181 0.748031 0.013896,
        2.703349 -0.748031 -0.009843,
        2.703349 0.748031 -0.009843,
        2.687707 -0.748031 -0.030227,
        2.687707 0.748031 -0.030227,
        2.667323 -0.748031 -0.045869,
        2.667323 0.748031 -0.045869,
        2.643585 -0.748031 -0.055701,
        2.643585 0.748031 -0.055701,
        2.618110 -0.748031 -0.059055,
        2.618110 0.748031 -0.059055,
        1.929134 0.748031 -0.059055,
        1.929134 -0.748031 -0.059055,
        1.929134 0.748031 0.078740,
        1.929134 -0.748031 0.078740,
        -0.309644 -0.024215 0.003937,
        -0.303005 -0.045820 0.003937,
        -0.375473 -0.024215 0.003937,
        -0.384326 -0.045820 0.003937,
        -0.339014 0.058006 0.003937,
        -0.329824 0.095816 0.003937,
        -0.255405 -0.101035 0.003937,
        -0.284212 -0.101035 0.003937,
        -0.340908 0.064833 0.003937,
        -0.342165 0.071810 0.003937,
        -0.356231 0.095816 0.003937,
        -0.342802 0.071810 0.003937,
        -0.344087 0.064854 0.003937,
        -0.345841 0.058006 0.003937,
        -0.433050 -0.101035 0.003937,
        -0.404243 -0.101035 0.003937,
        -0.345841 0.058006 0.000000,
        -0.344087 0.064854 0.000000,
        -0.342802 0.071810 0.000000,
        -0.342165 0.071810 0.000000,
        -0.340908 0.064833 0.000000,
        -0.339014 0.058006 0.000000,
        -0.309644 -0.024215 0.000000,
        -0.375473 -0.024215 0.000000,
        -0.138113 0.095816 0.003937,
        -0.082561 0.095816 0.003937,
        -0.166552 0.092776 0.003937,
        -0.189584 0.084689 0.003937,
        -0.211009 0.070330 0.003937,
        -0.211215 0.070149 0.003937,
        -0.225135 0.054713 0.003937,
        -0.234283 0.037784 0.003937,
        -0.239571 0.018389 0.003937,
        -0.241001 -0.000133 0.003937,
        -0.238239 -0.026478 0.003937,
        -0.231172 -0.047082 0.003937,
        -0.219883 -0.064689 0.003937,
        -0.203680 -0.080203 0.003937,
        -0.183126 -0.092148 0.003937,
        -0.160444 -0.098908 0.003937,
        -0.136087 -0.101035 0.003937,
        -0.082561 -0.101035 0.003937,
        -0.201488 0.046606 0.003937,
        -0.191927 0.056758 0.003937,
        -0.177548 0.066048 0.003937,
        -0.161299 0.071734 0.003937,
        -0.138000 0.074210 0.003937,
        -0.108967 0.074210 0.003937,
        -0.108967 -0.079429 0.003937,
        -0.136912 -0.079429 0.003937,
        -0.157680 -0.077496 0.003937,
        -0.174245 -0.072325 0.003937,
        -0.187670 -0.064353 0.003937,
        -0.198711 -0.053448 0.003937,
        -0.207013 -0.039876 0.003937,
        -0.212787 -0.021372 0.003937,
        -0.214594 -0.000696 0.003937,
        -0.212922 0.018895 0.003937,
        -0.208327 0.034465 0.003937,
        -0.136912 -0.079429 0.000000,
        -0.108967 -0.079429 0.000000,
        -0.157680 -0.077496 0.000000,
        -0.174245 -0.072325 0.000000,
        -0.187670 -0.064353 0.000000,
        -0.198711 -0.053448 0.000000,
        -0.207013 -0.039876 0.000000,
        -0.212787 -0.021372 0.000000,
        -0.214594 -0.000696 0.000000,
        -0.212922 0.018895 0.000000,
        -0.208327 0.034465 0.000000,
        -0.201488 0.046606 0.000000,
        -0.191927 0.056758 0.000000,
        -0.177548 0.066048 0.000000,
        -0.161299 0.071734 0.000000,
        -0.138000 0.074210 0.000000,
        -0.108967 0.074210 0.000000,
        0.061476 0.095816 0.003937,
        0.061476 -0.101035 0.003937,
        -0.039350 0.095816 0.003937,
        -0.039350 0.074210 0.003937,
        0.035069 0.074210 0.003937,
        0.035069 0.009394 0.003937,
        -0.034548 0.009394 0.003937,
        -0.034548 -0.012212 0.003937,
        0.035069 -0.012212 0.003937,
        0.035069 -0.079429 0.003937,
        -0.044151 -0.079429 0.003937,
        -0.044151 -0.101035 0.003937,
        0.154050 -0.103435 0.003937,
        0.178309 -0.100920 0.003937,
        0.197388 -0.094352 0.003937,
        0.213223 -0.084241 0.003937,
        0.228009 -0.068674 0.003937,
        0.238496 -0.049957 0.003937,
        0.244420 -0.029120 0.003937,
        0.246324 -0.006323 0.003937,
        0.243492 0.021663 0.003937,
        0.235935 0.043968 0.003937,
        0.224396 0.062372 0.003937,
        0.206625 0.079465 0.003937,
        0.187927 0.090227 0.003937,
        0.165982 0.096602 0.003937,
        0.146210 0.098217 0.003937,
        0.122645 0.096591 0.003937,
        0.099886 0.090415 0.003937,
        0.099886 0.064008 0.003937,
        0.122059 0.073502 0.003937,
        0.145985 0.076611 0.003937,
        0.165369 0.074434 0.003937,
        0.180103 0.069117 0.003937,
        0.193728 0.060002 0.003937,
        0.205615 0.046878 0.003937,
        0.213731 0.031680 0.003937,
        0.218978 0.010606 0.003937,
        0.219917 -0.004710 0.003937,
        0.217924 -0.026020 0.003937,
        0.212576 -0.042952 0.003937,
        0.204434 -0.056602 0.003937,
        0.195197 -0.066347 0.003937,
        0.183115 -0.074489 0.003937,
        0.168772 -0.079770 0.003937,
        0.150411 -0.081830 0.003937,
        0.124281 -0.078929 0.003937,
        0.103414 -0.071181 0.003937,
        0.099886 -0.069226 0.003937,
        0.099886 -0.090832 0.003937,
        0.120869 -0.099448 0.003937,
        0.148667 -0.103343 0.003937,
        0.363954 0.095816 0.003937,
        0.363954 -0.101035 0.003937,
        0.337547 0.095816 0.003937,
        0.337547 -0.079429 0.003937,
        0.263128 -0.079429 0.003937,
        0.263128 -0.101035 0.003937,
      ]
    }
    coordIndex [
      94, 95, 96, -1,
      94, 96, 97, -1,
      97, 96, 98, -1,
      97, 98, 99, -1,
      99, 98, 100, -1,
      99, 100, 101, -1,
      101, 100, 102, -1,
      101, 102, 103, -1,
      103, 102, 104, -1,
      103, 104, 105, -1,
      105, 104, 106, -1,
      105, 106, 107, -1,
      107, 106, 88, -1,
      107, 88, 87, -1,
      108, 86, 109, -1,
      109, 86, 89, -1,
      108, 109, 110, -1,
      110, 109, 111, -1,
      110, 111, 112, -1,
      112, 111, 113, -1,
      112, 113, 114, -1,
      114, 113, 115, -1,
      114, 115, 116, -1,
      116, 115, 117, -1,
      116, 117, 118, -1,
      118, 117, 119, -1,
      118, 119, 120, -1,
      120, 119, 121, -1,
      120, 121, 122, -1,
      122, 121, 123, -1,
      124, 122, 125, -1,
      125, 122, 123, -1,
      124, 125, 126, -1,
      126, 125, 127, -1,
      126, 127, 128, -1,
      128, 127, 129, -1,
      128, 129, 130, -1,
      130, 129, 131, -1,
      130, 131, 132, -1,
      132, 131, 133, -1,
      132, 133, 134, -1,
      134, 133, 135, -1,
      134, 135, 136, -1,
      136, 135, 137, -1,
      136, 137, 138, -1,
      138, 137, 139, -1,
      140, 138, 141, -1,
      141, 138, 139, -1,
      142, 140, 143, -1,
      143, 140, 141, -1,
      144, 142, 145, -1,
      145, 142, 143, -1,
      144, 145, 146, -1,
      144, 146, 147, -1,
      147, 146, 148, -1,
      147, 148, 149, -1,
      149, 148, 150, -1,
      149, 150, 151, -1,
      151, 150, 152, -1,
      151, 152, 153, -1,
      153, 152, 154, -1,
      153, 154, 155, -1,
      155, 154, 156, -1,
      155, 156, 157, -1,
      94, 157, 95, -1,
      95, 157, 156, -1,
      107, 87, 86, -1,
      157, 128, 155, -1,
      155, 128, 130, -1,
      155, 130, 153, -1,
      86, 108, 107, -1,
      107, 108, 110, -1,
      107, 110, 105, -1,
      105, 110, 112, -1,
      105, 112, 103, -1,
      103, 112, 114, -1,
      103, 114, 101, -1,
      101, 114, 116, -1,
      101, 116, 99, -1,
      99, 116, 118, -1,
      99, 118, 97, -1,
      153, 130, 151, -1,
      151, 130, 132, -1,
      151, 132, 149, -1,
      149, 132, 147, -1,
      147, 132, 134, -1,
      147, 134, 144, -1,
      118, 120, 97, -1,
      97, 120, 122, -1,
      97, 122, 94, -1,
      94, 122, 124, -1,
      94, 124, 157, -1,
      157, 124, 126, -1,
      157, 126, 128, -1,
      140, 142, 138, -1,
      138, 142, 144, -1,
      138, 144, 136, -1,
      136, 144, 134, -1,
      156, 154, 129, -1,
      129, 154, 131, -1,
      154, 152, 131, -1,
      131, 152, 150, -1,
      131, 150, 133, -1,
      89, 88, 109, -1,
      109, 88, 106, -1,
      150, 148, 133, -1,
      133, 148, 146, -1,
      133, 146, 135, -1,
      135, 146, 145, -1,
      135, 145, 137, -1,
      143, 141, 145, -1,
      145, 141, 139, -1,
      145, 139, 137, -1,
      129, 127, 156, -1,
      156, 127, 125, -1,
      156, 125, 95, -1,
      95, 125, 123, -1,
      95, 123, 96, -1,
      96, 123, 121, -1,
      96, 121, 98, -1,
      98, 121, 119, -1,
      98, 119, 100, -1,
      100, 119, 117, -1,
      100, 117, 102, -1,
      102, 117, 115, -1,
      102, 115, 104, -1,
      104, 115, 113, -1,
      104, 113, 106, -1,
      106, 113, 111, -1,
      106, 111, 109, -1,
      158, 159, 160, -1,
      160, 159, 161, -1,
      160, 161, 162, -1,
      162, 161, 163, -1,
      162, 163, 164, -1,
      164, 163, 165, -1,
      164, 165, 166, -1,
      166, 165, 167, -1,
      166, 167, 168, -1,
      168, 167, 169, -1,
      168, 169, 170, -1,
      170, 169, 171, -1,
      170, 171, 172, -1,
      172, 171, 173, -1,
      174, 172, 175, -1,
      175, 172, 173, -1,
      174, 175, 176, -1,
      176, 175, 177, -1,
      176, 177, 178, -1,
      178, 177, 179, -1,
      178, 179, 180, -1,
      180, 179, 181, -1,
      180, 181, 182, -1,
      182, 181, 183, -1,
      182, 183, 184, -1,
      184, 183, 185, -1,
      184, 185, 186, -1,
      186, 185, 187, -1,
      186, 187, 188, -1,
      188, 187, 189, -1,
      90, 188, 91, -1,
      91, 188, 189, -1,
      92, 93, 190, -1,
      92, 190, 191, -1,
      191, 190, 192, -1,
      191, 192, 193, -1,
      193, 192, 194, -1,
      193, 194, 195, -1,
      195, 194, 196, -1,
      195, 196, 197, -1,
      197, 196, 198, -1,
      197, 198, 199, -1,
      199, 198, 200, -1,
      199, 200, 201, -1,
      201, 200, 202, -1,
      201, 202, 203, -1,
      204, 203, 205, -1,
      205, 203, 202, -1,
      204, 205, 206, -1,
      204, 206, 207, -1,
      207, 206, 208, -1,
      207, 208, 209, -1,
      209, 208, 210, -1,
      209, 210, 211, -1,
      211, 210, 212, -1,
      211, 212, 213, -1,
      213, 212, 214, -1,
      213, 214, 215, -1,
      215, 214, 216, -1,
      215, 216, 217, -1,
      218, 217, 219, -1,
      219, 217, 216, -1,
      220, 218, 221, -1,
      221, 218, 219, -1,
      158, 220, 159, -1,
      159, 220, 221, -1,
      218, 220, 217, -1,
      217, 220, 158, -1,
      90, 92, 188, -1,
      188, 92, 191, -1,
      158, 160, 217, -1,
      217, 160, 162, -1,
      217, 162, 215, -1,
      215, 162, 164, -1,
      204, 207, 168, -1,
      168, 207, 166, -1,
      207, 209, 166, -1,
      166, 209, 211, -1,
      166, 211, 164, -1,
      164, 211, 213, -1,
      164, 213, 215, -1,
      168, 170, 204, -1,
      204, 170, 172, -1,
      204, 172, 203, -1,
      203, 172, 174, -1,
      203, 174, 201, -1,
      201, 174, 176, -1,
      201, 176, 199, -1,
      199, 176, 178, -1,
      199, 178, 197, -1,
      197, 178, 180, -1,
      197, 180, 195, -1,
      195, 180, 182, -1,
      195, 182, 193, -1,
      193, 182, 184, -1,
      193, 184, 191, -1,
      191, 184, 186, -1,
      191, 186, 188, -1,
      190, 93, 91, -1,
      221, 219, 159, -1,
      159, 219, 216, -1,
      159, 216, 161, -1,
      91, 189, 190, -1,
      190, 189, 187, -1,
      190, 187, 192, -1,
      192, 187, 185, -1,
      192, 185, 194, -1,
      194, 185, 183, -1,
      194, 183, 196, -1,
      196, 183, 181, -1,
      196, 181, 198, -1,
      198, 181, 179, -1,
      198, 179, 200, -1,
      161, 216, 163, -1,
      163, 216, 214, -1,
      163, 214, 165, -1,
      179, 177, 200, -1,
      200, 177, 175, -1,
      200, 175, 202, -1,
      202, 175, 173, -1,
      202, 173, 205, -1,
      214, 212, 165, -1,
      165, 212, 210, -1,
      165, 210, 167, -1,
      173, 171, 205, -1,
      205, 171, 169, -1,
      205, 169, 206, -1,
      206, 169, 167, -1,
      206, 167, 208, -1,
      208, 167, 210, -1,
      222, 223, 224, -1,
      224, 223, 225, -1,
      226, 227, 222, -1,
      222, 227, 228, -1,
      222, 228, 223, -1,
      223, 228, 229, -1,
      226, 230, 227, -1,
      227, 230, 231, -1,
      227, 231, 232, -1,
      232, 231, 233, -1,
      232, 233, 234, -1,
      234, 235, 232, -1,
      232, 235, 224, -1,
      232, 224, 236, -1,
      236, 224, 225, -1,
      236, 225, 237, -1,
      225, 79, 237, -1,
      237, 79, 66, -1,
      223, 78, 225, -1,
      225, 78, 79, -1,
      229, 77, 223, -1,
      223, 77, 78, -1,
      228, 60, 229, -1,
      229, 60, 77, -1,
      227, 69, 228, -1,
      228, 69, 60, -1,
      232, 68, 227, -1,
      227, 68, 69, -1,
      236, 67, 232, -1,
      232, 67, 68, -1,
      236, 237, 67, -1,
      67, 237, 66, -1,
      238, 235, 234, -1,
      238, 234, 239, -1,
      239, 234, 233, -1,
      239, 233, 240, -1,
      231, 241, 233, -1,
      233, 241, 240, -1,
      241, 231, 230, -1,
      241, 230, 242, -1,
      242, 230, 226, -1,
      242, 226, 243, -1,
      222, 244, 226, -1,
      226, 244, 243, -1,
      224, 245, 222, -1,
      222, 245, 244, -1,
      238, 245, 235, -1,
      235, 245, 224, -1,
      246, 73, 247, -1,
      247, 73, 72, -1,
      73, 246, 248, -1,
      73, 248, 80, -1,
      80, 248, 249, -1,
      80, 249, 81, -1,
      81, 249, 250, -1,
      81, 250, 82, -1,
      82, 250, 251, -1,
      82, 251, 74, -1,
      74, 251, 252, -1,
      74, 252, 75, -1,
      75, 252, 253, -1,
      75, 253, 76, -1,
      76, 253, 254, -1,
      76, 254, 83, -1,
      83, 254, 255, -1,
      83, 255, 84, -1,
      84, 255, 256, -1,
      84, 256, 85, -1,
      85, 256, 257, -1,
      85, 257, 61, -1,
      61, 257, 258, -1,
      61, 258, 62, -1,
      62, 258, 259, -1,
      62, 259, 63, -1,
      63, 259, 260, -1,
      63, 260, 64, -1,
      64, 260, 261, -1,
      64, 261, 65, -1,
      65, 261, 262, -1,
      65, 262, 70, -1,
      263, 71, 262, -1,
      262, 71, 70, -1,
      263, 247, 71, -1,
      71, 247, 72, -1,
      253, 252, 264, -1,
      264, 252, 251, -1,
      264, 251, 265, -1,
      265, 251, 250, -1,
      265, 250, 266, -1,
      266, 250, 249, -1,
      266, 249, 267, -1,
      267, 249, 248, -1,
      267, 248, 268, -1,
      268, 248, 246, -1,
      268, 246, 269, -1,
      269, 246, 247, -1,
      269, 247, 270, -1,
      270, 247, 263, -1,
      270, 263, 271, -1,
      271, 263, 262, -1,
      271, 262, 272, -1,
      272, 262, 261, -1,
      272, 261, 273, -1,
      273, 261, 260, -1,
      273, 260, 274, -1,
      274, 260, 259, -1,
      274, 259, 275, -1,
      275, 259, 258, -1,
      275, 258, 276, -1,
      276, 258, 257, -1,
      276, 257, 277, -1,
      277, 257, 256, -1,
      277, 256, 278, -1,
      278, 256, 255, -1,
      278, 255, 279, -1,
      279, 255, 254, -1,
      279, 254, 280, -1,
      280, 254, 253, -1,
      280, 253, 264, -1,
      271, 281, 270, -1,
      270, 281, 282, -1,
      281, 271, 272, -1,
      281, 272, 283, -1,
      283, 272, 273, -1,
      283, 273, 284, -1,
      284, 273, 274, -1,
      284, 274, 285, -1,
      285, 274, 275, -1,
      285, 275, 286, -1,
      286, 275, 276, -1,
      286, 276, 287, -1,
      287, 276, 277, -1,
      287, 277, 288, -1,
      288, 277, 278, -1,
      288, 278, 289, -1,
      289, 278, 279, -1,
      289, 279, 290, -1,
      290, 279, 280, -1,
      290, 280, 291, -1,
      291, 280, 264, -1,
      291, 264, 292, -1,
      292, 264, 265, -1,
      292, 265, 293, -1,
      293, 265, 266, -1,
      293, 266, 294, -1,
      294, 266, 267, -1,
      294, 267, 295, -1,
      295, 267, 268, -1,
      295, 268, 296, -1,
      269, 297, 268, -1,
      268, 297, 296, -1,
      282, 297, 270, -1,
      270, 297, 269, -1,
      298, 6, 299, -1,
      299, 6, 8, -1,
      300, 14, 298, -1,
      298, 14, 6, -1,
      301, 13, 300, -1,
      300, 13, 14, -1,
      302, 48, 301, -1,
      301, 48, 13, -1,
      303, 47, 302, -1,
      302, 47, 48, -1,
      304, 46, 303, -1,
      303, 46, 47, -1,
      305, 36, 304, -1,
      304, 36, 46, -1,
      306, 37, 305, -1,
      305, 37, 36, -1,
      307, 38, 306, -1,
      306, 38, 37, -1,
      308, 12, 307, -1,
      307, 12, 38, -1,
      309, 11, 308, -1,
      308, 11, 12, -1,
      309, 299, 11, -1,
      11, 299, 8, -1,
      299, 309, 308, -1,
      308, 307, 299, -1,
      299, 307, 306, -1,
      299, 306, 298, -1,
      301, 300, 302, -1,
      302, 300, 298, -1,
      302, 298, 303, -1,
      303, 298, 306, -1,
      303, 306, 304, -1,
      304, 306, 305, -1,
      3, 2, 310, -1,
      3, 310, 17, -1,
      310, 311, 17, -1,
      17, 311, 312, -1,
      17, 312, 18, -1,
      18, 312, 313, -1,
      18, 313, 41, -1,
      41, 313, 314, -1,
      41, 314, 42, -1,
      42, 314, 315, -1,
      42, 315, 44, -1,
      44, 315, 316, -1,
      44, 316, 49, -1,
      49, 316, 317, -1,
      49, 317, 50, -1,
      50, 317, 318, -1,
      50, 318, 51, -1,
      51, 318, 319, -1,
      51, 319, 35, -1,
      35, 319, 320, -1,
      35, 320, 34, -1,
      34, 320, 321, -1,
      34, 321, 33, -1,
      33, 321, 322, -1,
      33, 322, 52, -1,
      52, 322, 323, -1,
      52, 323, 53, -1,
      53, 323, 324, -1,
      53, 324, 54, -1,
      54, 324, 325, -1,
      54, 325, 55, -1,
      55, 325, 326, -1,
      55, 326, 56, -1,
      327, 57, 326, -1,
      326, 57, 56, -1,
      57, 327, 328, -1,
      57, 328, 58, -1,
      58, 328, 329, -1,
      58, 329, 59, -1,
      59, 329, 330, -1,
      59, 330, 19, -1,
      19, 330, 331, -1,
      19, 331, 20, -1,
      20, 331, 332, -1,
      20, 332, 22, -1,
      22, 332, 333, -1,
      22, 333, 23, -1,
      23, 333, 334, -1,
      23, 334, 39, -1,
      39, 334, 335, -1,
      39, 335, 40, -1,
      40, 335, 336, -1,
      40, 336, 24, -1,
      24, 336, 337, -1,
      24, 337, 25, -1,
      25, 337, 338, -1,
      25, 338, 26, -1,
      26, 338, 339, -1,
      26, 339, 31, -1,
      31, 339, 340, -1,
      31, 340, 30, -1,
      30, 340, 341, -1,
      30, 341, 29, -1,
      29, 341, 342, -1,
      29, 342, 27, -1,
      27, 342, 343, -1,
      27, 343, 28, -1,
      28, 343, 344, -1,
      28, 344, 32, -1,
      32, 344, 345, -1,
      32, 345, 21, -1,
      21, 345, 346, -1,
      21, 346, 7, -1,
      347, 9, 346, -1,
      346, 9, 7, -1,
      10, 9, 348, -1,
      348, 9, 347, -1,
      10, 348, 0, -1,
      0, 348, 349, -1,
      0, 349, 1, -1,
      1, 349, 310, -1,
      1, 310, 2, -1,
      342, 310, 343, -1,
      343, 310, 349, -1,
      343, 349, 344, -1,
      344, 349, 348, -1,
      344, 348, 345, -1,
      345, 348, 347, -1,
      345, 347, 346, -1,
      327, 326, 328, -1,
      328, 326, 325, -1,
      328, 325, 329, -1,
      329, 325, 324, -1,
      329, 324, 330, -1,
      330, 324, 323, -1,
      330, 323, 331, -1,
      331, 323, 322, -1,
      331, 322, 332, -1,
      332, 322, 321, -1,
      332, 321, 333, -1,
      333, 321, 320, -1,
      333, 320, 334, -1,
      334, 320, 319, -1,
      334, 319, 335, -1,
      335, 319, 318, -1,
      335, 318, 336, -1,
      336, 318, 317, -1,
      336, 317, 337, -1,
      337, 317, 316, -1,
      337, 316, 338, -1,
      338, 316, 315, -1,
      338, 315, 339, -1,
      339, 315, 314, -1,
      339, 314, 340, -1,
      340, 314, 313, -1,
      340, 313, 341, -1,
      341, 313, 312, -1,
      341, 312, 342, -1,
      342, 312, 311, -1,
      342, 311, 310, -1,
      350, 4, 351, -1,
      351, 4, 15, -1,
      352, 5, 350, -1,
      350, 5, 4, -1,
      353, 45, 352, -1,
      352, 45, 5, -1,
      354, 43, 353, -1,
      353, 43, 45, -1,
      355, 16, 354, -1,
      354, 16, 43, -1,
      355, 351, 16, -1,
      16, 351, 15, -1,
      352, 350, 353, -1,
      353, 350, 351, -1,
      353, 351, 354, -1,
      354, 351, 355, -1,
    ]
  }
}

Shape {
  appearance Appearance {
    material Material {
      diffuseColor 0.2078 0.2078 0.2078
      specularColor 0.0157 0.0157 0.0157
      ambientIntensity 0.2
      transparency 0.0000
      shininess 0.5
    }
  }
  geometry IndexedFaceSet {
    ccw TRUE
    solid FALSE
    coord DEF co Coordinate {
      point [
        -0.345841 0.058006 0.000000,
        -0.344087 0.064854 0.000000,
        -0.342802 0.071810 0.000000,
        -0.342165 0.071810 0.000000,
        -0.340908 0.064833 0.000000,
        -0.339014 0.058006 0.000000,
        -0.309644 -0.024215 0.000000,
        -0.375473 -0.024215 0.000000,
        -0.136912 -0.079429 0.000000,
        -0.108967 -0.079429 0.000000,
        -0.157680 -0.077496 0.000000,
        -0.174245 -0.072325 0.000000,
        -0.187670 -0.064353 0.000000,
        -0.198711 -0.053448 0.000000,
        -0.207013 -0.039876 0.000000,
        -0.212787 -0.021372 0.000000,
        -0.214594 -0.000696 0.000000,
        -0.212922 0.018895 0.000000,
        -0.208327 0.034465 0.000000,
        -0.201488 0.046606 0.000000,
        -0.191927 0.056758 0.000000,
        -0.177548 0.066048 0.000000,
        -0.161299 0.071734 0.000000,
        -0.138000 0.074210 0.000000,
        -0.108967 0.074210 0.000000,
      ]
    }
    coordIndex [
      6, 7, 5, -1,
      5, 7, 0, -1,
      5, 0, 4, -1,
      4, 0, 1, -1,
      4, 1, 3, -1,
      3, 1, 2, -1,
      24, 9, 23, -1,
      23, 9, 8, -1,
      23, 8, 10, -1,
      16, 17, 23, -1,
      23, 17, 18, -1,
      23, 18, 22, -1,
      10, 11, 23, -1,
      23, 11, 12, -1,
      23, 12, 13, -1,
      13, 14, 23, -1,
      23, 14, 15, -1,
      23, 15, 16, -1,
      19, 20, 18, -1,
      18, 20, 21, -1,
      18, 21, 22, -1,
    ]
  }
}
